<svg xmlns="http://www.w3.org/2000/svg" data-name="Layer 1" viewBox="0 0 24 24"><path d="m13.78 8.2-1.6 8c-.09.48-.51.8-.98.8-.06 0-.13 0-.2-.02a.997.997 0 0 1-.78-1.18l1.6-8c.11-.54.63-.89 1.18-.78.54.11.89.63.78 1.18ZM9.21 9.43a.996.996 0 0 0-1.41 0l-1.21 1.21a1.98 1.98 0 0 0 0 2.81l1.21 1.21c.2.2.45.29.71.29s.51-.1.71-.29a.996.996 0 0 0 0-1.41l-1.21-1.19 1.21-1.21a.996.996 0 0 0 0-1.41Zm8.21 1.21-1.21-1.21a.996.996 0 1 0-1.41 1.41l1.21 1.2-1.21 1.21a.996.996 0 0 0 .71 1.7c.26 0 .51-.1.71-.29l1.21-1.21c.78-.78.78-2.04 0-2.81Zm4.95 7.4a1.502 1.502 0 0 1-2.05.55l-.53-.31a9.987 9.987 0 0 1-6.29 3.62v.61c0 .83-.67 1.5-1.5 1.5s-1.5-.67-1.5-1.5v-.61a9.987 9.987 0 0 1-6.29-3.62l-.53.31a1.502 1.502 0 0 1-2.05-.55 1.5 1.5 0 0 1 .54-2.05l.53-.31C2.25 14.54 2 13.3 2 12s.25-2.54.7-3.68l-.53-.31c-.72-.42-.96-1.33-.54-2.05.42-.72 1.33-.96 2.05-.54l.53.31a9.987 9.987 0 0 1 6.29-3.62V1.5c0-.83.67-1.5 1.5-1.5s1.5.67 1.5 1.5v.61c2.53.38 4.75 1.71 6.29 3.62l.53-.31a1.5 1.5 0 0 1 2.05.54 1.5 1.5 0 0 1-.54 2.05l-.53.31c.45 1.14.7 2.38.7 3.68s-.25 2.54-.7 3.68l.53.31c.72.42.96 1.33.54 2.05ZM19 12c0-3.86-3.14-7-7-7s-7 3.14-7 7 3.14 7 7 7 7-3.14 7-7Z" fill="#00a2ff" class="fill-000000"></path></svg>